<?xml version="1.0" encoding="UTF-8" standalone="no"?>
<!DOCTYPE svg PUBLIC "-//W3C//DTD SVG 1.1//EN" "http://www.w3.org/Graphics/SVG/1.1/DTD/svg11.dtd">
<svg width="100%" height="100%" viewBox="0 0 1961 119" version="1.1" xmlns="http://www.w3.org/2000/svg" xmlns:xlink="http://www.w3.org/1999/xlink" xml:space="preserve" xmlns:serif="http://www.serif.com/" style="fill-rule:evenodd;clip-rule:evenodd;stroke-linecap:round;stroke-linejoin:round;stroke-miterlimit:1.5;">
    <g id="Artboard2" transform="matrix(0.589116,0,0,0.108961,-12.702,0)">
        <rect x="21.561" y="0" width="3328.09" height="1083.97" style="fill:none;"/>
        <g transform="matrix(1.0907,0,0,4.6,27.3823,-2630.43)">
            <g transform="matrix(1,0,0,1,-11.3352,-164.952)">
                <g transform="matrix(60.5192,0,0,2.36834,-6975.16,-133.679)">
                    <rect x="118.11" y="389.764" width="23.622" height="29.85" style="fill:rgb(217,217,217);"/>
                </g>
                <g transform="matrix(1.5563,0,0,1.99513,19.1479,200.299)">
                    <path d="M98.715,330.709L1015.75,330.709" style="fill:none;stroke:black;stroke-width:1.46px;"/>
                </g>
                <g transform="matrix(1.5563,0,0,1.99513,19.1479,129.605)">
                    <path d="M98.715,330.709L1015.75,330.709" style="fill:none;stroke:black;stroke-width:1.46px;"/>
                </g>
            </g>
            <g transform="matrix(1,0,0,1,-14.4609,35.3468)">
                <g>
                    <g transform="matrix(1.5563,0,0,1.99513,21.5612,0)">
                        <path d="M133.465,295.276L133.465,330.709" style="fill:none;stroke:black;stroke-width:1.46px;"/>
                    </g>
                    <g transform="matrix(1.5563,0,0,1.99513,-17.3462,0)">
                        <path d="M133.465,295.276L133.465,330.709" style="fill:none;stroke:black;stroke-width:1.46px;"/>
                    </g>
                    <g transform="matrix(1.5563,0,0,1.99513,644.08,0)">
                        <path d="M133.465,295.276L133.465,330.709" style="fill:none;stroke:black;stroke-width:1.46px;"/>
                    </g>
                    <g transform="matrix(1.5563,0,0,1.99513,332.82,0)">
                        <path d="M133.465,295.276L133.465,330.709" style="fill:none;stroke:black;stroke-width:1.46px;"/>
                    </g>
                    <g transform="matrix(1.5563,0,0,1.99513,955.339,0)">
                        <path d="M133.465,295.276L133.465,330.709" style="fill:none;stroke:black;stroke-width:1.46px;"/>
                    </g>
                    <g transform="matrix(1.5563,0,0,1.99513,177.191,0)">
                        <path d="M133.465,295.276L133.465,330.709" style="fill:none;stroke:black;stroke-width:1.46px;"/>
                    </g>
                    <g transform="matrix(1.5563,0,0,1.99513,799.709,0)">
                        <path d="M133.465,295.276L133.465,330.709" style="fill:none;stroke:black;stroke-width:1.46px;"/>
                    </g>
                    <g transform="matrix(1.5563,0,0,1.99513,488.45,0)">
                        <path d="M133.465,295.276L133.465,330.709" style="fill:none;stroke:black;stroke-width:1.46px;"/>
                    </g>
                    <g transform="matrix(1.5563,0,0,1.99513,1110.97,0)">
                        <path d="M133.465,295.276L133.465,330.709" style="fill:none;stroke:black;stroke-width:1.46px;"/>
                    </g>
                    <g transform="matrix(1.5563,0,0,1.99513,1305.51,0)">
                        <path d="M133.465,295.276L133.465,330.709" style="fill:none;stroke:black;stroke-width:1.46px;"/>
                    </g>
                    <g transform="matrix(1.5563,0,0,1.99513,60.4686,0)">
                        <path d="M133.465,295.276L133.465,330.709" style="fill:none;stroke:black;stroke-width:1.46px;"/>
                    </g>
                    <g transform="matrix(1.5563,0,0,1.99513,682.987,0)">
                        <path d="M133.465,295.276L133.465,330.709" style="fill:none;stroke:black;stroke-width:1.46px;"/>
                    </g>
                    <g transform="matrix(1.5563,0,0,1.99513,371.728,0)">
                        <path d="M133.465,295.276L133.465,330.709" style="fill:none;stroke:black;stroke-width:1.46px;"/>
                    </g>
                    <g transform="matrix(1.5563,0,0,1.99513,994.246,0)">
                        <path d="M133.465,295.276L133.465,330.709" style="fill:none;stroke:black;stroke-width:1.46px;"/>
                    </g>
                    <g transform="matrix(1.5563,0,0,1.99513,1188.78,0)">
                        <path d="M133.465,295.276L133.465,330.709" style="fill:none;stroke:black;stroke-width:1.46px;"/>
                    </g>
                    <g transform="matrix(1.5563,0,0,1.99513,216.098,0)">
                        <path d="M133.465,295.276L133.465,330.709" style="fill:none;stroke:black;stroke-width:1.46px;"/>
                    </g>
                    <g transform="matrix(1.5563,0,0,1.99513,838.617,0)">
                        <path d="M133.465,295.276L133.465,330.709" style="fill:none;stroke:black;stroke-width:1.46px;"/>
                    </g>
                    <g transform="matrix(1.5563,0,0,1.99513,527.357,0)">
                        <path d="M133.465,295.276L133.465,330.709" style="fill:none;stroke:black;stroke-width:1.46px;"/>
                    </g>
                    <g transform="matrix(1.5563,0,0,1.99513,1149.88,0)">
                        <path d="M133.465,295.276L133.465,330.709" style="fill:none;stroke:black;stroke-width:1.46px;"/>
                    </g>
                    <g transform="matrix(1.5563,0,0,1.99513,1344.41,0)">
                        <path d="M133.465,295.276L133.465,330.709" style="fill:none;stroke:black;stroke-width:1.46px;"/>
                    </g>
                    <g transform="matrix(1.5563,0,0,1.99513,99.376,0)">
                        <path d="M133.465,295.276L133.465,330.709" style="fill:none;stroke:black;stroke-width:1.46px;"/>
                    </g>
                    <g transform="matrix(1.5563,0,0,1.99513,721.895,0)">
                        <path d="M133.465,295.276L133.465,330.709" style="fill:none;stroke:black;stroke-width:1.46px;"/>
                    </g>
                    <g transform="matrix(1.5563,0,0,1.99513,410.635,0)">
                        <path d="M133.465,295.276L133.465,330.709" style="fill:none;stroke:black;stroke-width:1.46px;"/>
                    </g>
                    <g transform="matrix(1.5563,0,0,1.99513,1033.15,0)">
                        <path d="M133.465,295.276L133.465,330.709" style="fill:none;stroke:black;stroke-width:1.46px;"/>
                    </g>
                    <g transform="matrix(1.5563,0,0,1.99513,1227.69,0)">
                        <path d="M133.465,295.276L133.465,330.709" style="fill:none;stroke:black;stroke-width:1.46px;"/>
                    </g>
                    <g transform="matrix(1.5563,0,0,1.99513,255.006,0)">
                        <path d="M133.465,295.276L133.465,330.709" style="fill:none;stroke:black;stroke-width:1.46px;"/>
                    </g>
                    <g transform="matrix(1.5563,0,0,1.99513,877.524,0)">
                        <path d="M133.465,295.276L133.465,330.709" style="fill:none;stroke:black;stroke-width:1.46px;"/>
                    </g>
                    <g transform="matrix(1.5563,0,0,1.99513,566.265,0)">
                        <path d="M133.465,295.276L133.465,330.709" style="fill:none;stroke:black;stroke-width:1.46px;"/>
                    </g>
                    <g transform="matrix(1.5563,0,0,1.99513,1383.32,0)">
                        <path d="M133.465,295.276L133.465,330.709" style="fill:none;stroke:black;stroke-width:1.46px;"/>
                    </g>
                    <g transform="matrix(1.5563,0,0,1.99513,138.283,0)">
                        <path d="M133.465,295.276L133.465,330.709" style="fill:none;stroke:black;stroke-width:1.46px;"/>
                    </g>
                    <g transform="matrix(1.5563,0,0,1.99513,760.802,0)">
                        <path d="M133.465,295.276L133.465,330.709" style="fill:none;stroke:black;stroke-width:1.46px;"/>
                    </g>
                    <g transform="matrix(1.5563,0,0,1.99513,449.543,0)">
                        <path d="M133.465,295.276L133.465,330.709" style="fill:none;stroke:black;stroke-width:1.46px;"/>
                    </g>
                    <g transform="matrix(1.5563,0,0,1.99513,1072.06,0)">
                        <path d="M133.465,295.276L133.465,330.709" style="fill:none;stroke:black;stroke-width:1.46px;"/>
                    </g>
                    <g transform="matrix(1.5563,0,0,1.99513,1266.6,0)">
                        <path d="M133.465,295.276L133.465,330.709" style="fill:none;stroke:black;stroke-width:1.46px;"/>
                    </g>
                    <g transform="matrix(1.5563,0,0,1.99513,293.913,0)">
                        <path d="M133.465,295.276L133.465,330.709" style="fill:none;stroke:black;stroke-width:1.46px;"/>
                    </g>
                    <g transform="matrix(1.5563,0,0,1.99513,916.432,0)">
                        <path d="M133.465,295.276L133.465,330.709" style="fill:none;stroke:black;stroke-width:1.46px;"/>
                    </g>
                    <g transform="matrix(1.5563,0,0,1.99513,605.172,0)">
                        <path d="M133.465,295.276L133.465,330.709" style="fill:none;stroke:black;stroke-width:1.46px;"/>
                    </g>
                </g>
            </g>
        </g>
        <g transform="matrix(1.0907,0,0,4.6,1384.46,-2630.43)">
            <g transform="matrix(1,0,0,1,-11.3352,-164.952)">
                <g transform="matrix(60.5192,0,0,2.36834,-6975.16,-133.679)">
                    <rect x="118.11" y="389.764" width="23.622" height="29.85" style="fill:rgb(217,217,217);"/>
                </g>
                <g transform="matrix(1.5563,0,0,1.99513,19.1479,200.299)">
                    <path d="M98.715,330.709L1015.75,330.709" style="fill:none;stroke:black;stroke-width:1.46px;"/>
                </g>
                <g transform="matrix(1.5563,0,0,1.99513,19.1479,129.605)">
                    <path d="M98.715,330.709L1015.75,330.709" style="fill:none;stroke:black;stroke-width:1.46px;"/>
                </g>
            </g>
            <g transform="matrix(1,0,0,1,-14.4609,35.3468)">
                <g>
                    <g transform="matrix(1.5563,0,0,1.99513,21.5612,0)">
                        <path d="M133.465,295.276L133.465,330.709" style="fill:none;stroke:black;stroke-width:1.46px;"/>
                    </g>
                    <g transform="matrix(1.5563,0,0,1.99513,-17.3462,0)">
                        <path d="M133.465,295.276L133.465,330.709" style="fill:none;stroke:black;stroke-width:1.46px;"/>
                    </g>
                    <g transform="matrix(1.5563,0,0,1.99513,644.08,0)">
                        <path d="M133.465,295.276L133.465,330.709" style="fill:none;stroke:black;stroke-width:1.46px;"/>
                    </g>
                    <g transform="matrix(1.5563,0,0,1.99513,332.82,0)">
                        <path d="M133.465,295.276L133.465,330.709" style="fill:none;stroke:black;stroke-width:1.46px;"/>
                    </g>
                    <g transform="matrix(1.5563,0,0,1.99513,955.339,0)">
                        <path d="M133.465,295.276L133.465,330.709" style="fill:none;stroke:black;stroke-width:1.46px;"/>
                    </g>
                    <g transform="matrix(1.5563,0,0,1.99513,177.191,0)">
                        <path d="M133.465,295.276L133.465,330.709" style="fill:none;stroke:black;stroke-width:1.46px;"/>
                    </g>
                    <g transform="matrix(1.5563,0,0,1.99513,799.709,0)">
                        <path d="M133.465,295.276L133.465,330.709" style="fill:none;stroke:black;stroke-width:1.46px;"/>
                    </g>
                    <g transform="matrix(1.5563,0,0,1.99513,488.45,0)">
                        <path d="M133.465,295.276L133.465,330.709" style="fill:none;stroke:black;stroke-width:1.46px;"/>
                    </g>
                    <g transform="matrix(1.5563,0,0,1.99513,1110.97,0)">
                        <path d="M133.465,295.276L133.465,330.709" style="fill:none;stroke:black;stroke-width:1.46px;"/>
                    </g>
                    <g transform="matrix(1.5563,0,0,1.99513,1305.51,0)">
                        <path d="M133.465,295.276L133.465,330.709" style="fill:none;stroke:black;stroke-width:1.46px;"/>
                    </g>
                    <g transform="matrix(1.5563,0,0,1.99513,60.4686,0)">
                        <path d="M133.465,295.276L133.465,330.709" style="fill:none;stroke:black;stroke-width:1.46px;"/>
                    </g>
                    <g transform="matrix(1.5563,0,0,1.99513,682.987,0)">
                        <path d="M133.465,295.276L133.465,330.709" style="fill:none;stroke:black;stroke-width:1.46px;"/>
                    </g>
                    <g transform="matrix(1.5563,0,0,1.99513,371.728,0)">
                        <path d="M133.465,295.276L133.465,330.709" style="fill:none;stroke:black;stroke-width:1.46px;"/>
                    </g>
                    <g transform="matrix(1.5563,0,0,1.99513,994.246,0)">
                        <path d="M133.465,295.276L133.465,330.709" style="fill:none;stroke:black;stroke-width:1.46px;"/>
                    </g>
                    <g transform="matrix(1.5563,0,0,1.99513,1188.78,0)">
                        <path d="M133.465,295.276L133.465,330.709" style="fill:none;stroke:black;stroke-width:1.46px;"/>
                    </g>
                    <g transform="matrix(1.5563,0,0,1.99513,216.098,0)">
                        <path d="M133.465,295.276L133.465,330.709" style="fill:none;stroke:black;stroke-width:1.46px;"/>
                    </g>
                    <g transform="matrix(1.5563,0,0,1.99513,838.617,0)">
                        <path d="M133.465,295.276L133.465,330.709" style="fill:none;stroke:black;stroke-width:1.46px;"/>
                    </g>
                    <g transform="matrix(1.5563,0,0,1.99513,527.357,0)">
                        <path d="M133.465,295.276L133.465,330.709" style="fill:none;stroke:black;stroke-width:1.46px;"/>
                    </g>
                    <g transform="matrix(1.5563,0,0,1.99513,1149.88,0)">
                        <path d="M133.465,295.276L133.465,330.709" style="fill:none;stroke:black;stroke-width:1.46px;"/>
                    </g>
                    <g transform="matrix(1.5563,0,0,1.99513,1344.41,0)">
                        <path d="M133.465,295.276L133.465,330.709" style="fill:none;stroke:black;stroke-width:1.46px;"/>
                    </g>
                    <g transform="matrix(1.5563,0,0,1.99513,99.376,0)">
                        <path d="M133.465,295.276L133.465,330.709" style="fill:none;stroke:black;stroke-width:1.46px;"/>
                    </g>
                    <g transform="matrix(1.5563,0,0,1.99513,721.895,0)">
                        <path d="M133.465,295.276L133.465,330.709" style="fill:none;stroke:black;stroke-width:1.46px;"/>
                    </g>
                    <g transform="matrix(1.5563,0,0,1.99513,410.635,0)">
                        <path d="M133.465,295.276L133.465,330.709" style="fill:none;stroke:black;stroke-width:1.46px;"/>
                    </g>
                    <g transform="matrix(1.5563,0,0,1.99513,1033.15,0)">
                        <path d="M133.465,295.276L133.465,330.709" style="fill:none;stroke:black;stroke-width:1.46px;"/>
                    </g>
                    <g transform="matrix(1.5563,0,0,1.99513,1227.69,0)">
                        <path d="M133.465,295.276L133.465,330.709" style="fill:none;stroke:black;stroke-width:1.46px;"/>
                    </g>
                    <g transform="matrix(1.5563,0,0,1.99513,255.006,0)">
                        <path d="M133.465,295.276L133.465,330.709" style="fill:none;stroke:black;stroke-width:1.46px;"/>
                    </g>
                    <g transform="matrix(1.5563,0,0,1.99513,877.524,0)">
                        <path d="M133.465,295.276L133.465,330.709" style="fill:none;stroke:black;stroke-width:1.46px;"/>
                    </g>
                    <g transform="matrix(1.5563,0,0,1.99513,566.265,0)">
                        <path d="M133.465,295.276L133.465,330.709" style="fill:none;stroke:black;stroke-width:1.46px;"/>
                    </g>
                    <g transform="matrix(1.5563,0,0,1.99513,1383.32,0)">
                        <path d="M133.465,295.276L133.465,330.709" style="fill:none;stroke:black;stroke-width:1.46px;"/>
                    </g>
                    <g transform="matrix(1.5563,0,0,1.99513,138.283,0)">
                        <path d="M133.465,295.276L133.465,330.709" style="fill:none;stroke:black;stroke-width:1.46px;"/>
                    </g>
                    <g transform="matrix(1.5563,0,0,1.99513,760.802,0)">
                        <path d="M133.465,295.276L133.465,330.709" style="fill:none;stroke:black;stroke-width:1.46px;"/>
                    </g>
                    <g transform="matrix(1.5563,0,0,1.99513,449.543,0)">
                        <path d="M133.465,295.276L133.465,330.709" style="fill:none;stroke:black;stroke-width:1.46px;"/>
                    </g>
                    <g transform="matrix(1.5563,0,0,1.99513,1072.06,0)">
                        <path d="M133.465,295.276L133.465,330.709" style="fill:none;stroke:black;stroke-width:1.46px;"/>
                    </g>
                    <g transform="matrix(1.5563,0,0,1.99513,1266.6,0)">
                        <path d="M133.465,295.276L133.465,330.709" style="fill:none;stroke:black;stroke-width:1.46px;"/>
                    </g>
                    <g transform="matrix(1.5563,0,0,1.99513,293.913,0)">
                        <path d="M133.465,295.276L133.465,330.709" style="fill:none;stroke:black;stroke-width:1.46px;"/>
                    </g>
                    <g transform="matrix(1.5563,0,0,1.99513,916.432,0)">
                        <path d="M133.465,295.276L133.465,330.709" style="fill:none;stroke:black;stroke-width:1.46px;"/>
                    </g>
                    <g transform="matrix(1.5563,0,0,1.99513,605.172,0)">
                        <path d="M133.465,295.276L133.465,330.709" style="fill:none;stroke:black;stroke-width:1.46px;"/>
                    </g>
                </g>
            </g>
        </g>
        <g transform="matrix(8.658,0,0,27.5328,-556.483,-6912.11)">
            <rect x="94.488" y="259.843" width="156.768" height="11.811" style="fill:none;stroke:black;stroke-width:1px;"/>
        </g>
        <g transform="matrix(8.658,0,0,27.5328,800.59,-6912.11)">
            <rect x="94.488" y="259.843" width="156.768" height="11.811" style="fill:none;stroke:black;stroke-width:1px;"/>
        </g>
        <g transform="matrix(1.69746,0,0,9.17761,-306.299,308.469)">
            <g transform="matrix(41.6667,0,0,41.6667,606.84,63.7664)">
            </g>
            <text x="331.795px" y="63.766px" style="font-family:'CourierNewPSMT', 'Courier New', monospace;font-size:41.667px;">yearOfBirth</text>
        </g>
        <g transform="matrix(1.69746,0,0,9.17761,1050.77,308.469)">
            <g transform="matrix(41.6667,0,0,41.6667,606.84,63.7664)">
            </g>
            <text x="331.795px" y="63.766px" style="font-family:'CourierNewPSMT', 'Courier New', monospace;font-size:41.667px;">largeNumber</text>
        </g>
        <g transform="matrix(1.69746,0,0,9.17761,219.134,521.848)">
            <g transform="matrix(41.6667,0,0,41.6667,825.134,0)">
            </g>
            <text x="0px" y="0px" style="font-family:'CourierNewPSMT', 'Courier New', monospace;font-size:41.667px;">100000000000000000000011111001111</text>
        </g>
        <g transform="matrix(1.69746,0,0,9.17761,1620.34,521.848)">
            <g transform="matrix(41.6667,0,0,41.6667,875.142,0)">
            </g>
            <text x="0px" y="0px" style="font-family:'CourierNewPSMT', 'Courier New', monospace;font-size:41.667px;">01111111111111111111111111111111001</text>
        </g>
        <g transform="matrix(1.0907,0,0,4.6,-86.8286,-3744.03)">
            <g transform="matrix(1.5563,0,0,1.99513,34.191,187.941)">
                <circle cx="111.428" cy="357.848" r="3.517"/>
            </g>
            <g transform="matrix(1.5563,0,0,1.99513,53.7146,187.941)">
                <circle cx="111.428" cy="357.848" r="3.517"/>
            </g>
            <g transform="matrix(1.5563,0,0,1.99513,73.2382,187.941)">
                <circle cx="111.428" cy="357.848" r="3.517"/>
            </g>
        </g>
        <g transform="matrix(1.0907,0,0,4.6,2949.68,-3744.03)">
            <g transform="matrix(1.5563,0,0,1.99513,34.191,187.941)">
                <circle cx="111.428" cy="357.848" r="3.517"/>
            </g>
            <g transform="matrix(1.5563,0,0,1.99513,53.7146,187.941)">
                <circle cx="111.428" cy="357.848" r="3.517"/>
            </g>
            <g transform="matrix(1.5563,0,0,1.99513,73.2382,187.941)">
                <circle cx="111.428" cy="357.848" r="3.517"/>
            </g>
        </g>
    </g>
</svg>
